# xmcd CD database file
#
# Track frame offsets:
#	150
#	44113
#	84888
#	143682
#	215934
#	229344
#
# Disc length: 3714 seconds
#
# Revision: 1
# Processed by: cddbd v1.5.2PL0 Copyright (c) Steve Scherf et al.
# Submitted via: CDex 1.70beta2
#
DISCID=560e8006
DTITLE=Various Artist - Jazz Roads CD400 - Bebop - Bebop Live Concerts Vol. 11 (1950-51) 
DYEAR=1900
DGENRE=Jazz
TTITLE0=Wardell Gray's Los Angeles All Stars - Jazz On Sunset (Move)
TTITLE1=Wardell Gray's Los Angeles All Stars - Kiddo (Scrapple From The Apple)
TTITLE2=Charlie Parker Quintet - Lullaby In Rhythm
TTITLE3=Charlie Parker Quintet - Scrapple From The Apple
TTITLE4=Charlie Parker Quintet - Happy Bird Blues
TTITLE5=Charlie Parker Quintet - I'll Remember April
EXTD=
EXTT0=
EXTT1=
EXTT2=
EXTT3=
EXTT4=
EXTT5=
PLAYORDER=
